<svg xmlns="http://www.w3.org/2000/svg" version="1.1" xmlns:xlink="http://www.w3.org/1999/xlink" xmlns:svgjs="http://svgjs.dev/svgjs" width="2000" height="1500" viewBox="0 0 2000 1500"><rect width="2000" height="1500" fill="#000000"></rect><g transform="matrix(0.75,0,0,0.75,248.830143348393,97.78810975609758)"><svg viewBox="0 0 378 328" data-background-color="#87ceeb" preserveAspectRatio="xMidYMid meet" height="1735" width="2000" xmlns="http://www.w3.org/2000/svg" xmlns:xlink="http://www.w3.org/1999/xlink"><g id="tight-bounds" transform="matrix(1,0,0,1,0.2948038762049521,0.39999999999997726)"><svg viewBox="0 0 377.4099503500499 327.2" height="327.2" width="377.4099503500499"><g><svg viewBox="0 0 395.5199999999999 342.9007207678749" height="327.2" width="377.4099503500499"><g transform="matrix(1,0,0,1,0,176.46275926693994)"><svg viewBox="0 0 395.5199999999999 166.43796150093496" height="166.43796150093496" width="395.5199999999999"><g id="textblocktransform"><svg viewBox="0 0 395.5199999999999 166.43796150093496" height="166.43796150093496" width="395.5199999999999" id="textblock"><g><svg viewBox="0 0 395.5199999999999 166.43796150093496" height="166.43796150093496" width="395.5199999999999"><g transform="matrix(1,0,0,1,0,0)"><svg width="395.5199999999999" viewBox="-3.6994999999999996 -21.08192 145.19132999999997 61.09768141353382" height="166.43796150093496" data-palette-color="#f0f0f0"><path d="M11.609 19.331l-11.923-5.256 14.839-33.665 10.752 4.74c2.593 1.143 4.622 2.431 6.089 3.864 1.46 1.431 2.349 2.992 2.667 4.684 0.318 1.692 0.049 3.508-0.806 5.448v0c-0.511 1.159-1.228 2.133-2.15 2.92-0.929 0.785-2.017 1.344-3.264 1.676-1.244 0.326-2.645 0.39-4.204 0.191v0c2.22 1.576 3.672 3.28 4.359 5.112 0.689 1.841 0.573 3.808-0.35 5.9v0c-0.871 1.976-2.105 3.462-3.702 4.456-1.596 0.994-3.447 1.497-5.55 1.509-2.095 0.009-4.347-0.517-6.757-1.579zM11.002 0.725l-5.175 11.74 7.284 3.211c2.44 1.076 4.523 1.349 6.25 0.821 1.727-0.529 3.011-1.747 3.852-3.657v0c0.758-1.72 0.746-3.361-0.037-4.924-0.789-1.565-2.419-2.891-4.89-3.98v0zM17.48-13.97l-5.05 11.456 6.012 2.65c1.598 0.705 3.052 1.076 4.361 1.114 1.309 0.038 2.451-0.246 3.424-0.851 0.977-0.597 1.728-1.49 2.252-2.68v0c0.869-1.97 0.911-3.678 0.128-5.124-0.781-1.452-2.422-2.729-4.923-3.831v0zM1.095 14.696l-4.794-2.113 0.847-1.922c0.126-0.287 0.291-0.487 0.494-0.602 0.197-0.117 0.428-0.136 0.691-0.055v0l3.854 0.802zM11.14-21.082l4.795 2.114-2.139 3.439-3.193-2.303c-0.221-0.177-0.358-0.369-0.413-0.576-0.058-0.215-0.025-0.463 0.099-0.743v0zM36.85 27.627l-4.467-0.969 5.516-25.419 2.56 0.556c0.502 0.109 0.83 0.276 0.987 0.5 0.162 0.226 0.209 0.577 0.139 1.054v0l-0.556 4.024c1.258-1.583 2.626-2.735 4.107-3.458 1.488-0.728 3.102-0.903 4.842-0.526v0c0.704 0.153 1.321 0.372 1.852 0.658 0.53 0.292 1.001 0.623 1.412 0.992v0l-1.277 3.243c-0.076 0.195-0.2 0.325-0.371 0.39-0.171 0.065-0.358 0.076-0.559 0.032v0c-0.235-0.051-0.671-0.224-1.31-0.519-0.632-0.294-1.199-0.495-1.701-0.604v0c-1.538-0.334-2.932-0.162-4.184 0.514-1.251 0.67-2.41 1.783-3.477 3.339v0zM40.456 28.409l-5.111-1.109 1.395-3.79 3.589 1.618c0.26 0.091 0.439 0.242 0.536 0.454 0.091 0.211 0.103 0.469 0.036 0.775v0zM33.888 26.984l-5.111-1.109 0.446-2.052c0.066-0.306 0.185-0.536 0.354-0.69 0.176-0.153 0.402-0.216 0.676-0.191v0l3.936 0.015zM34.293 0.457l5.111 1.109-1.396 3.79-3.588-1.618c-0.253-0.123-0.429-0.284-0.53-0.483-0.094-0.198-0.108-0.446-0.043-0.746v0zM59.873 31.056l-4.554-0.384 2.185-25.918 4.554 0.384zM56.853 30.801l-5.211-0.439 0.176-2.093c0.026-0.312 0.114-0.556 0.263-0.73 0.155-0.174 0.37-0.266 0.645-0.277v0l3.906-0.494zM63.55 31.366l-5.212-0.44 0.894-3.939 3.768 1.141c0.27 0.056 0.466 0.183 0.59 0.381 0.117 0.197 0.163 0.452 0.136 0.764v0zM53.827 4.444l5.212 0.439-0.894 3.939-3.768-1.141c-0.267-0.089-0.463-0.226-0.587-0.411-0.118-0.184-0.165-0.429-0.139-0.734v0zM60.121 0.027v0c-0.857-0.072-1.58-0.458-2.171-1.157-0.596-0.706-0.858-1.484-0.786-2.334v0c0.074-0.884 0.465-1.623 1.17-2.22 0.699-0.59 1.477-0.849 2.334-0.776v0c0.884 0.074 1.624 0.461 2.22 1.16 0.589 0.705 0.847 1.5 0.773 2.384v0c-0.072 0.85-0.457 1.574-1.157 2.17-0.705 0.589-1.5 0.847-2.383 0.773zM76.312 4.236v0c1.125-0.069 2.183-0.014 3.176 0.165 0.986 0.18 1.903 0.48 2.751 0.902v0l7.016-0.433 0.105 1.697c0.017 0.273-0.056 0.508-0.217 0.705-0.155 0.197-0.42 0.34-0.795 0.429v0l-2.889 0.599c0.65 1.122 1.017 2.349 1.099 3.68v0c0.106 1.71-0.229 3.214-1.004 4.51-0.782 1.297-1.883 2.334-3.305 3.11-1.429 0.769-3.065 1.211-4.908 1.324v0c-0.612 0.038-1.203 0.041-1.772 0.01-0.57-0.032-1.132-0.1-1.686-0.207v0c-0.524 0.38-0.917 0.775-1.18 1.185-0.269 0.411-0.391 0.802-0.368 1.175v0c0.04 0.652 0.336 1.115 0.887 1.388 0.545 0.274 1.256 0.443 2.136 0.509 0.879 0.066 1.832 0.084 2.858 0.054 1.027-0.03 2.018-0.041 2.974-0.033v0c1.579 0.043 3.038 0.193 4.376 0.451 1.332 0.258 2.426 0.775 3.282 1.551 0.849 0.769 1.322 1.939 1.419 3.51v0c0.101 1.637-0.337 3.143-1.314 4.519-0.977 1.383-2.353 2.513-4.129 3.391-1.782 0.885-3.831 1.399-6.147 1.541v0c-2.256 0.139-4.256-0.028-6.002-0.501-1.74-0.48-3.12-1.2-4.141-2.159-1.015-0.966-1.564-2.134-1.649-3.505v0c-0.08-1.298 0.261-2.424 1.024-3.38 0.763-0.949 1.827-1.722 3.193-2.321v0c-0.74-0.302-1.347-0.728-1.823-1.28-0.482-0.551-0.752-1.306-0.811-2.264v0c-0.048-0.785 0.208-1.606 0.77-2.462 0.568-0.857 1.332-1.572 2.292-2.146v0c-1.342-0.639-2.409-1.531-3.201-2.677-0.793-1.153-1.237-2.515-1.334-4.086v0c-0.108-1.743 0.226-3.263 1.001-4.56 0.782-1.297 1.894-2.324 3.337-3.082 1.443-0.757 3.102-1.193 4.979-1.309zM86.122 31.544v0c-0.061-0.991-0.507-1.675-1.339-2.052-0.825-0.377-1.807-0.6-2.947-0.669v0c-0.377-0.044-0.909-0.061-1.596-0.052-0.681 0.009-1.425 0.011-2.234 0.007-0.802-0.004-1.574-0.016-2.316-0.037-0.736-0.021-1.346-0.054-1.83-0.098v0c-0.929 0.538-1.678 1.159-2.249 1.863-0.571 0.703-0.828 1.517-0.771 2.442v0c0.053 0.852 0.404 1.575 1.055 2.169 0.651 0.594 1.552 1.02 2.704 1.276 1.144 0.25 2.452 0.33 3.922 0.239v0c1.497-0.092 2.824-0.351 3.98-0.777 1.156-0.432 2.065-1.012 2.728-1.741 0.656-0.728 0.954-1.585 0.893-2.57zM77.155 17.91v0c1.777-0.11 3.131-0.674 4.064-1.693 0.932-1.019 1.35-2.314 1.253-3.885v0c-0.097-1.57-0.653-2.795-1.669-3.674-1.016-0.879-2.446-1.262-4.289-1.148v0c-1.843 0.114-3.215 0.669-4.115 1.667-0.894 0.997-1.292 2.281-1.196 3.85v0c0.097 1.57 0.671 2.804 1.722 3.701 1.044 0.897 2.454 1.291 4.23 1.182zM103.857 26.589l-4.408 1.205-9.971-36.472 4.408-1.205 4.032 14.749c0.779-1.422 1.727-2.656 2.845-3.701 1.109-1.05 2.506-1.805 4.191-2.266v0c1.846-0.505 3.497-0.531 4.954-0.079 1.451 0.453 2.694 1.309 3.73 2.567 1.035 1.258 1.81 2.829 2.325 4.714v0l4.37 15.984-4.399 1.202-4.37-15.983c-0.515-1.884-1.354-3.234-2.517-4.05-1.163-0.816-2.635-0.98-4.416-0.493v0c-1.293 0.353-2.422 1.001-3.388 1.942-0.968 0.935-1.779 2.076-2.433 3.423v0zM123.902 21.109l-5.055 1.382-0.505-4.009 3.92-0.222c0.272-0.04 0.501 0.012 0.685 0.155 0.184 0.143 0.318 0.366 0.401 0.668v0zM100.934 27.388l-5.044 1.379-0.554-2.026c-0.083-0.302-0.084-0.561-0.005-0.776 0.086-0.217 0.256-0.378 0.511-0.482v0l3.497-1.806zM85.919-7.705l5.045-1.379 0.514 4.006-3.93 0.224c-0.281 0.008-0.512-0.053-0.693-0.183-0.174-0.132-0.302-0.346-0.382-0.642v0zM107.417 25.616l-5.045 1.379-0.515-4.006 3.93-0.225c0.272-0.04 0.501 0.012 0.685 0.155 0.178 0.145 0.308 0.368 0.391 0.671v0zM136.873 15.422v0c-1.844 0.887-3.517 1.055-5.017 0.505-1.5-0.551-2.717-1.797-3.65-3.738v0l-6.891-14.329-2.821 1.357c-0.246 0.118-0.491 0.14-0.735 0.065-0.243-0.075-0.439-0.266-0.586-0.573v0l-0.78-1.622 3.596-2.351-2.502-7.673c-0.188-0.56-0.006-0.974 0.546-1.24v0l2.082-1.001 3.87 8.048 6.705-3.225 1.448 3.01-6.705 3.225 6.757 14.049c0.474 0.985 1.064 1.604 1.769 1.857 0.712 0.249 1.452 0.189 2.221-0.181v0c0.336-0.162 0.661-0.433 0.975-0.812 0.313-0.38 0.593-0.744 0.839-1.092 0.253-0.351 0.454-0.563 0.605-0.635v0c0.216-0.104 0.462-0.07 0.736 0.101v0l2.157 1.415c-0.397 0.99-1.002 1.917-1.814 2.781-0.818 0.867-1.753 1.553-2.805 2.059z" opacity="1" transform="matrix(1,0,0,1,0,0)" fill="#ffffff" class="wordmark-text-0" data-fill-palette-color="primary" id="text-0"></path></svg></g></svg></g></svg></g></svg></g><g transform="matrix(1,0,0,1,114.2596229789716,0)"><svg viewBox="0 0 167.0007540420567 166.43796150093496" height="166.43796150093496" width="167.0007540420567"><g><svg version="1.0" xmlns="http://www.w3.org/2000/svg" xmlns:xlink="http://www.w3.org/1999/xlink" x="0" y="0" viewBox="0 0 100 99.663" enable-background="new 0 0 100 99.663" xml:space="preserve" id="icon-0" width="167.0007540420567" height="166.43796150093496" class="icon-icon-0" data-fill-palette-color="accent"><path d="M47.8 0H52.273V16.999H47.8z" fill="#ffffff" data-fill-palette-color="accent"></path><path d="M47.536 82.663H52.008V99.663H47.536z" fill="#ffffff" data-fill-palette-color="accent"></path><path d="M83.003 46.546H100V51.005H83.003z" fill="#ffffff" data-fill-palette-color="accent"></path><path d="M0 46.269H16.999V50.742H0z" fill="#ffffff" data-fill-palette-color="accent"></path><path d="M6.473 25.4L8.643 21.494 23.496 29.729 21.325 33.647z" fill="#ffffff" data-fill-palette-color="accent"></path><path d="M24.304 7.222L28.089 4.846 37.107 19.265 33.321 21.628z" fill="#ffffff" data-fill-palette-color="accent"></path><path d="M64.728 78.916L68.584 76.697 77.083 91.418 73.226 93.647z" fill="#ffffff" data-fill-palette-color="accent"></path><path d="M77.723 67.028L79.893 63.123 94.769 71.358 92.587 75.276z" fill="#ffffff" data-fill-palette-color="accent"></path><path d="M27.1 93.852L23.195 91.682 31.43 76.806 35.348 78.965z" fill="#ffffff" data-fill-palette-color="accent"></path><path d="M7.342 74.962L4.99 71.177 19.397 62.158 21.76 65.945z" fill="#ffffff" data-fill-palette-color="accent"></path><path d="M79.324 35.069L77.083 31.188 91.802 22.688 94.045 26.57z" fill="#ffffff" data-fill-palette-color="accent"></path><path d="M67.956 22.327L64.038 20.146 72.284 5.293 76.191 7.464z" fill="#ffffff" data-fill-palette-color="accent"></path><path d="M22.436 49.777C22.436 34.527 34.805 22.157 50.055 22.157 65.293 22.157 77.652 34.527 77.652 49.777S65.294 77.382 50.055 77.382C34.805 77.385 22.436 65.027 22.436 49.777" fill="#ffffff" data-fill-palette-color="accent"></path></svg></g></svg></g><g></g></svg></g><defs></defs></svg><rect width="377.4099503500499" height="327.2" fill="none" stroke="none" visibility="hidden"></rect></g></svg></g></svg>